<svg width="2367" height="2367" viewBox="0 0 2367 2367" fill="none" xmlns="http://www.w3.org/2000/svg">
<circle cx="1183.12" cy="1183.12" r="1183.12" fill="#4600E9"/>
<path fill-rule="evenodd" clip-rule="evenodd" d="M1902.52 822.382C1855.5 854.548 1825.7 892.903 1813.61 936.803C1806.56 962.388 1804.12 987.322 1808.41 989.976C1815.01 994.05 1859.55 968.926 1880.54 949.295C1903.27 928.026 1921.06 897.915 1929.08 867.118C1934.26 847.229 1935.85 804.387 1931.41 804.387C1929.99 804.387 1916.98 812.486 1902.52 822.382ZM1828.19 947.763C1825.71 945.883 1837.71 922.981 1844.99 915.701C1857.64 903.047 1857.07 905.963 1842.59 928.058C1835.22 939.309 1828.74 948.176 1828.19 947.763Z" fill="white"/>
<path d="M826.225 1148.87C825.561 1149.53 812.498 1148.55 797.194 1146.67L770.478 1143.4C769.764 1143.32 769.106 1142.98 768.621 1142.45L753.562 1125.97C720.802 1090.12 685.12 1078.68 605.88 1078.61C547.45 1078.55 545.57 1079.29 555.423 1098.43C579.62 1145.42 634.35 1175.33 696.154 1175.33C712.752 1175.33 734.235 1173.28 743.898 1170.77C754.036 1168.14 763.57 1167.34 766.444 1168.88C769.182 1170.34 791.582 1174.93 816.223 1179.08L861.023 1186.62L826.225 1148.87Z" fill="white"/>
<path fill-rule="evenodd" clip-rule="evenodd" d="M787.427 641.563C787.44 625.558 789.366 607.024 791.708 600.369C794.052 593.718 797.21 588.273 798.723 588.273C803.548 588.273 815.13 607.14 822.038 626.242C829.16 645.937 831.918 699.949 826.751 718.512L825.502 722.994C824.895 725.175 822.19 725.931 820.54 724.381L816.13 720.238C796.465 701.762 787.409 666.965 787.427 641.563ZM1688.08 804.657C1689.31 797.52 1694.7 791.099 1705.2 777.747C1716.02 763.98 1726.01 753.413 1727.38 754.264C1731.43 756.764 1749.48 807.077 1756.36 835.03C1766.9 877.846 1770.53 915.524 1768.47 960.827C1764.72 1043.11 1737.33 1118.96 1680.42 1204.65C1651.95 1247.52 1612.82 1293.69 1534.55 1376.78C1453.76 1462.54 1444.2 1473.11 1418.4 1505.08C1341.33 1600.64 1301.95 1693.71 1301.87 1780.51C1301.81 1841.62 1320.47 1903.5 1355.5 1958.4C1361.47 1967.75 1366.35 1976.09 1366.35 1976.94C1366.35 1977.8 1290.88 1978.49 1198.63 1978.49C1106.39 1978.49 1030.92 1977.81 1030.92 1976.98C1030.92 1976.15 1041.64 1953.29 1054.75 1926.18C1079.37 1875.26 1089.34 1850.09 1127.25 1743.03C1209.25 1511.46 1272.86 1412.72 1418.52 1290.93C1487.07 1233.63 1557.75 1178.03 1617.49 1111.22C1627.48 1100.05 1637.09 1088.52 1645.77 1076.29C1667.26 1046.02 1686.09 1009.19 1697.27 975.342C1705.29 951.053 1706.34 943.138 1706.42 905.992C1706.48 881.076 1704.91 859.748 1696.11 836.437L1696.08 836.357C1689.84 819.806 1686.84 811.866 1688.08 804.657Z" fill="white"/>
<path d="M1843.7 563.669C1794.05 584.316 1761.19 619.252 1752.98 660.11C1748.22 683.815 1751.33 701.168 1760.32 701.168C1781.32 701.168 1834.21 661.039 1852.32 631.367C1861.84 615.768 1872.73 581.425 1872.73 566.968C1872.73 553.656 1868.83 553.215 1843.7 563.669Z" fill="white"/>
<path d="M1442.27 388.691C1401.82 436.568 1402.07 534.119 1442.76 581.661L1453.42 594.119C1453.94 594.731 1454.2 595.528 1454.13 596.331L1452 621.51C1449.25 654.056 1440.51 695.378 1429.28 728.986C1409.35 788.61 1358.13 877.656 1302.43 949.537C1272.31 988.402 1200.42 1075.88 1186.13 1091.34C1184.9 1092.68 1182.67 1094.98 1181.57 1096.43L1150.76 1136.86L1131.6 1166.58C1121.07 1182.92 1110.43 1200.19 1107.96 1204.95L1105.6 1209.52C1104.6 1211.45 1101.96 1211.72 1100.59 1210.04L1082.52 1187.81C1059.44 1159.42 1027.79 1130.31 985.601 1098.71L958.932 1078.72C958.347 1078.28 957.942 1077.65 957.791 1076.93L942.617 1004.92C914.812 872.953 911.083 857.786 902.43 841.481C891.177 820.269 816.801 745.994 772.588 711.813L739.352 686.119C738.75 685.654 738.347 684.978 738.223 684.227L734.616 662.391C729.694 632.57 718.889 611.739 697.454 590.722C680.634 574.232 629.283 540.509 626 543.793C625.1 544.693 622.794 554.34 620.875 565.236C611.228 620.007 642.946 679.28 696.138 705.894C708.672 712.164 721.837 717.296 725.395 717.296C728.952 717.296 742.183 725.605 754.794 735.759C790.14 764.219 866.367 840.042 873.321 853.657C876.743 860.354 883.052 882.852 887.342 903.654C891.631 924.455 900.253 963.891 906.497 991.289C912.741 1018.69 917.257 1041.7 916.531 1042.43C914.163 1044.8 842.003 989.431 818.278 967.049C786.744 937.3 760.322 897.044 749.011 861.515C740.318 834.221 730.267 829.358 708.833 810.838C694.464 798.419 681.314 788.259 679.618 788.259C674.622 788.259 671.277 816.192 671.509 855.996C671.858 915.695 687.636 962.259 730.213 1029.22C734.342 1035.72 732.313 1035.3 706.656 1024.38C668.5 1008.15 612.908 963.356 609.764 946.312C607.138 932.094 595.595 911.824 583.69 900.531C571.898 889.342 543.267 876.288 521.445 872.149C495.406 867.211 437.457 867.869 437.457 873.104C437.457 883.752 455.741 912.134 472.745 927.874C499.487 952.637 538.342 968.891 570.789 968.891C581.861 968.891 586.07 971.387 604.832 989.086C641.304 1023.5 665.272 1039.89 702.992 1056.23C767.031 1083.96 780.025 1092.27 804.906 1121.34C817.294 1135.82 826.886 1148.21 826.225 1148.87L861.023 1186.62L882.294 1210.81C993.681 1337.5 1064.7 1446.65 1093.97 1536.13C1096.95 1545.26 1100.41 1552.72 1101.66 1552.72C1102.91 1552.72 1108.87 1541.47 1114.91 1527.72C1139.17 1472.46 1183.84 1398.92 1212.56 1366.97C1224.88 1353.27 1228.12 1346.53 1235.23 1319.82C1255.99 1241.8 1288.3 1171.81 1347.65 1076.29C1369.7 1040.8 1371.87 1038.52 1468.95 948.883C1599.43 828.398 1611.46 816.834 1622.8 801.051C1628.1 793.668 1640.21 779.427 1649.7 769.399C1691.16 725.592 1711.46 676.099 1711.46 618.823C1711.46 587.544 1705.61 561.459 1695.91 549.479L1692.34 545.069C1691.17 543.62 1688.98 543.574 1687.74 544.971L1674.81 559.64C1623.6 617.713 1602.37 678.018 1611.19 740.353L1615.13 768.148C1615.26 769.064 1614.96 769.989 1614.32 770.656L1602.92 782.521C1596.1 789.63 1562.93 820.511 1529.23 851.151C1495.53 881.787 1457.48 917.04 1444.69 929.49L1434.24 939.66C1431.81 942.028 1427.92 939.186 1429.45 936.151L1433.82 927.446C1488.62 818.257 1508.52 717.38 1493.87 622.968C1488.24 586.667 1488.24 586.657 1495.34 568.92C1505.98 542.38 1507.37 508.56 1499.15 476.094C1492.26 448.835 1471.35 402.738 1458.63 386.794L1453.75 380.673C1452.57 379.189 1450.32 379.157 1449.1 380.607L1442.27 388.691Z" fill="white"/>
<path d="M1124.13 1884.88H1274.41L1291.11 1936.06H1107.43L1124.13 1884.88Z" fill="#4600E9"/>
<path d="M1149.9 1812.62H1260.51L1271.57 1845.74H1136.07L1149.9 1812.62Z" fill="#4600E9"/>
<path d="M1175.87 1746.37H1257.31L1270.04 1773.47H1163.14L1175.87 1746.37Z" fill="#4600E9"/>
<path d="M1199.32 1684.65H1267L1277.58 1707.23H1188.75L1199.32 1684.65Z" fill="#4600E9"/>
<path d="M1222.95 1628.93H1278.01L1286.61 1645.49H1214.34L1222.95 1628.93Z" fill="#4600E9"/>
<circle cx="1440.19" cy="1945.1" r="34.6283" fill="white"/>
</svg>
