<svg width="95" height="21" viewBox="0 0 95 21" fill="none" xmlns="http://www.w3.org/2000/svg">
<path d="M14.4338 0.957031H19.1668L11.9585 13.6008V19.9092H7.49743V13.6008L0.289062 0.957031H5.0221L9.72795 9.56674L14.4338 0.957031Z" fill="#141414"/>
<path d="M24.9121 20.207C22.8448 20.207 21.1311 19.5663 19.771 18.2847C18.4109 16.9852 17.7309 15.2975 17.7309 13.2218C17.7309 11.1641 18.4019 9.48551 19.7438 8.18594C21.1039 6.88636 22.7813 6.23657 24.776 6.23657C26.7345 6.23657 28.3576 6.85026 29.6451 8.07764C30.9326 9.28697 31.5764 10.8844 31.5764 12.8698C31.5764 13.2308 31.5492 13.6821 31.4948 14.2236H22.1103C22.2554 15.0719 22.5727 15.7127 23.0624 16.1459C23.5701 16.579 24.1776 16.7956 24.8849 16.7956C25.4833 16.7956 26.0001 16.6512 26.4353 16.3624C26.8706 16.0556 27.1426 15.6495 27.2514 15.1441L31.0324 16.1459C30.6697 17.4815 29.9262 18.4923 28.8019 19.1782C27.6957 19.8641 26.3991 20.207 24.9121 20.207ZM22.2463 11.5161H27.4146C27.3058 11.0288 27.0156 10.6046 26.5441 10.2436C26.0908 9.86456 25.5105 9.67503 24.8033 9.67503C23.5339 9.67503 22.6815 10.2887 22.2463 11.5161Z" fill="#141414"/>
<path d="M46.039 16.4437C46.1841 16.4437 46.3927 16.3985 46.6647 16.3083V19.9634C46.2838 20.1078 45.7489 20.18 45.0598 20.18C43.3189 20.18 42.1402 19.6926 41.5236 18.7179C40.5806 19.6926 39.2296 20.18 37.4706 20.18C36.0924 20.18 34.9681 19.819 34.0976 19.097C33.2453 18.375 32.8192 17.3823 32.8192 16.1188C32.8192 14.9455 33.209 13.9979 33.9888 13.2759C34.7686 12.554 35.8204 12.1298 37.1442 12.0034L41.034 11.6515V11.3807C41.034 10.8573 40.8526 10.4421 40.49 10.1353C40.1273 9.81041 39.6648 9.64796 39.1027 9.64796C38.0872 9.64796 37.4797 10.1353 37.2802 11.11L33.3904 10.5685C33.6261 9.05232 34.2971 7.95129 35.4033 7.2654C36.5276 6.57951 37.8696 6.23657 39.4291 6.23657C41.2788 6.23657 42.7295 6.67879 43.7813 7.56322C44.8512 8.42961 45.3862 9.66601 45.3862 11.2724V15.7127C45.3862 16.2 45.6038 16.4437 46.039 16.4437ZM41.034 14.6568V14.3589L38.4771 14.6568C38.0418 14.7109 37.6973 14.8553 37.4434 15.0899C37.1895 15.3065 37.0626 15.5683 37.0626 15.8751C37.0626 16.2361 37.2167 16.5159 37.525 16.7144C37.8514 16.913 38.2594 17.0032 38.7491 16.9852C39.4019 16.9491 39.9459 16.7325 40.3811 16.3354C40.8164 15.9383 41.034 15.3787 41.034 14.6568Z" fill="#141414"/>
<path d="M56.4519 6.23657C57.9751 6.23657 59.2173 6.67879 60.1784 7.56322C61.1577 8.44766 61.6473 9.68406 61.6473 11.2724V19.9092H57.2951V12.5991C57.2951 11.7868 57.0956 11.1822 56.6967 10.7851C56.2977 10.3699 55.7537 10.1624 55.0646 10.1624C54.3755 10.1624 53.8224 10.379 53.4053 10.8122C53.0063 11.2454 52.8069 11.8771 52.8069 12.7074V19.9092H48.4546V0.957031H52.8069V7.61737C53.6954 6.69684 54.9104 6.23657 56.4519 6.23657Z" fill="#141414"/>
<path d="M72.9393 6.50731H77.2915V19.9092H72.9393V18.7992C72.0507 19.7197 70.8357 20.18 69.2943 20.18C67.8436 20.18 66.6104 19.7197 65.5949 18.7992C64.5975 17.8606 64.0988 16.552 64.0988 14.8733V6.50731H68.4511V13.9257C68.4511 14.7019 68.6506 15.2885 69.0495 15.6856C69.4485 16.0646 69.9925 16.2541 70.6816 16.2541C71.3707 16.2541 71.9147 16.0376 72.3137 15.6044C72.7308 15.1712 72.9393 14.5394 72.9393 13.7091V6.50731Z" fill="#141414"/>
<path d="M88.0686 6.23657C89.9183 6.23657 91.4869 6.89538 92.7744 8.21301C94.062 9.51259 94.7057 11.1822 94.7057 13.2218C94.7057 15.2253 94.071 16.8859 92.8016 18.2035C91.5322 19.5211 89.9636 20.18 88.0958 20.18C86.5 20.18 85.1943 19.6926 84.1788 18.7179V19.9092H79.8266V0.957031H84.1788V7.67152C85.1762 6.71488 86.4728 6.23657 88.0686 6.23657ZM87.1981 16.4166C88.0323 16.4166 88.7395 16.1278 89.3198 15.5502C89.9001 14.9546 90.1903 14.1784 90.1903 13.2218C90.1903 12.2471 89.9001 11.471 89.3198 10.8934C88.7577 10.2977 88.0505 9.99993 87.1981 9.99993C86.3277 9.99993 85.6023 10.2977 85.022 10.8934C84.4599 11.471 84.1788 12.2471 84.1788 13.2218C84.1788 14.1784 84.4599 14.9546 85.022 15.5502C85.6023 16.1278 86.3277 16.4166 87.1981 16.4166Z" fill="#141414"/>
</svg>
